<?xml version="1.0" encoding="utf-8"?>
<!-- Generator: Adobe Illustrator 16.0.0, SVG Export Plug-In . SVG Version: 6.00 Build 0)  -->
<!DOCTYPE svg PUBLIC "-//W3C//DTD SVG 1.1//EN" "http://www.w3.org/Graphics/SVG/1.1/DTD/svg11.dtd">
<svg version="1.1" id="Aircraft_Parts" xmlns="http://www.w3.org/2000/svg" xmlns:xlink="http://www.w3.org/1999/xlink" x="0px"
	 y="0px" width="640.63px" height="158.74px" viewBox="0 0 640.63 158.74" enable-background="new 0 0 640.63 158.74"
	 xml:space="preserve">
<g id="_x32_">
	<path fill="none" stroke="#000000" stroke-width="0.5" stroke-miterlimit="10" d="M159.32,156.222
		c-36.016,0-67.222-20.521-70.372-14.571c-1.637,3.093,11.426,9.423,7.458,11.823c-6.912,4.184-29.659-5.293-38.589-7.104
		c-9.102-1.846-23.255-2.872-32.455-4.137c-9.539-1.311-23.727-4.949-23.727-16.59c0-11.814,12.37-15.099,25.622-17.109
		c37.988-5.764,153.883-10.187,153.883-10.187s45.113-17.066,65.304-19.249c20.352-2.201,61.299,9.791,61.299,9.791
		s36.181,9.26,48.531,10.764c29.523,3.592,19.281,1.637,118.818,1.605c17.795-0.006,19.296-2.497,26.558-8.731
		c19.242-16.521,61.674-81.096,61.674-81.096l-0.182-7.458l75.672-1.456l0.18,8.004l-19.479,104.197
		c0,0-265.955,41.503-292.87,41.503C159.32,156.222,166.162,156.222,159.32,156.222z"/>
	<path d="M306.767,102.008c-5.958,5.12-43.373,15.151-52.662,14.488c-30.588-2.183-51.596-8.397-72.965-18.148
		c0,0,45.113-17.066,65.304-19.249c20.352-2.201,61.299,9.791,61.299,9.791S311.21,98.188,306.767,102.008z"/>
	<g>
		<g>
			
				<line fill="none" stroke="#000000" stroke-width="0.5" stroke-miterlimit="10" x1="638.994" y1="10.522" x2="632.994" y2="10.594"/>
			
				<line fill="none" stroke="#000000" stroke-width="0.5" stroke-miterlimit="10" stroke-dasharray="12.7351,6.3675" x1="626.628" y1="10.67" x2="572.508" y2="11.321"/>
			
				<line fill="none" stroke="#000000" stroke-width="0.5" stroke-miterlimit="10" x1="569.324" y1="11.359" x2="563.324" y2="11.431"/>
		</g>
	</g>
</g>
</svg>
