<?xml version="1.0" encoding="utf-8"?>
<!-- Generator: Adobe Illustrator 16.0.0, SVG Export Plug-In . SVG Version: 6.00 Build 0)  -->
<!DOCTYPE svg PUBLIC "-//W3C//DTD SVG 1.1//EN" "http://www.w3.org/Graphics/SVG/1.1/DTD/svg11.dtd">
<svg version="1.1" id="Aircraft_Parts" xmlns="http://www.w3.org/2000/svg" xmlns:xlink="http://www.w3.org/1999/xlink" x="0px"
	 y="0px" width="266.46px" height="62.36px" viewBox="0 0 266.46 62.36" enable-background="new 0 0 266.46 62.36"
	 xml:space="preserve">
<g id="_x34_">
	<g>
		<path fill="none" stroke="#000000" stroke-width="0.5" stroke-miterlimit="10" d="M104.624,60.03
			c36.017,0.005,57.429-16.267,67.808-15.651c2.896,0.172,9.049,9.31,13.859,9.99c6.771,0.959,10.906-2.382,19.836-4.191
			c9.102-1.846,23.255-2.871,32.455-4.137c9.538-1.311,23.727-4.948,23.727-16.589c0-11.814-12.369-15.098-25.622-17.109
			C198.699,6.58,82.802,2.332,82.802,2.332c-32.24,14.747-57.49,10.247-75.18,26.518c-5.256,4.833-5.311,21.329,5.189,24.482
			c21.803,6.548,51.724,6.699,65.931,6.699C86.548,60.03,97.115,60.029,104.624,60.03z"/>
		<path d="M206.127,50.178c0,0,23.255-2.871,32.455-4.137c9.538-1.311,23.727-4.948,23.727-16.589
			c0-11.814-12.311-15.531-25.622-17.109c-19.542-2.314-29.532-3.222-29.532-3.222L206.127,50.178z"/>
	</g>
</g>
</svg>
