<?xml version="1.0" encoding="utf-8"?>
<!-- Generator: Adobe Illustrator 16.0.0, SVG Export Plug-In . SVG Version: 6.00 Build 0)  -->
<!DOCTYPE svg PUBLIC "-//W3C//DTD SVG 1.1//EN" "http://www.w3.org/Graphics/SVG/1.1/DTD/svg11.dtd">
<svg version="1.1" id="Aircraft_Parts" xmlns="http://www.w3.org/2000/svg" xmlns:xlink="http://www.w3.org/1999/xlink" x="0px"
	 y="0px" width="629.29px" height="68.03px" viewBox="0 0 629.29 68.03" enable-background="new 0 0 629.29 68.03"
	 xml:space="preserve">
<g id="_x31_">
	<path fill="none" stroke="#000000" stroke-width="0.5" stroke-miterlimit="10" d="M162.526,62.953
		c-36.016,0-67.222-20.521-70.372-14.571c-1.637,3.093,11.426,9.423,7.458,11.823c-6.912,4.184-29.659-5.293-38.589-7.104
		c-9.102-1.846-23.255-2.872-32.455-4.137c-9.539-1.311-23.727-4.949-23.727-16.59c0-11.814,12.37-15.099,25.622-17.109
		C68.451,9.501,184.347,5.079,184.347,5.079S378.759,8.021,478.299,7.99c17.795-0.006,61.262-0.06,87.936,0.653
		c10.902,0.291,58.215,3.567,58.215,3.567l-1.729,9.239c0,0-265.954,41.503-292.87,41.503
		C162.526,62.953,169.368,62.953,162.526,62.953z"/>
</g>
</svg>
