<?xml version="1.0" encoding="utf-8"?>
<!-- Generator: Adobe Illustrator 16.0.0, SVG Export Plug-In . SVG Version: 6.00 Build 0)  -->
<!DOCTYPE svg PUBLIC "-//W3C//DTD SVG 1.1//EN" "http://www.w3.org/Graphics/SVG/1.1/DTD/svg11.dtd">
<svg version="1.1" id="Aircraft_Parts" xmlns="http://www.w3.org/2000/svg" xmlns:xlink="http://www.w3.org/1999/xlink" x="0px"
	 y="0px" width="578.27px" height="79.37px" viewBox="0 0 578.27 79.37" enable-background="new 0 0 578.27 79.37"
	 xml:space="preserve">
<g id="_x33_">
	<g>
		<g>
			<path fill="none" stroke="#000000" stroke-width="0.5" stroke-miterlimit="10" d="M244.916,61.317l1.184,14.6h120.599l0.728-14.6
				c8.889,0,41.961,0,48.803,0c36.017,0,67.223-20.522,70.373-14.572c1.637,3.093-11.426,9.423-7.459,11.824
				c6.912,4.184,29.66-5.293,38.59-7.104c9.102-1.845,23.254-2.871,32.454-4.136c9.538-1.311,23.728-4.949,23.728-16.591
				c0-11.813-12.37-15.098-25.623-17.108C510.304,7.866,394.407,3.453,394.407,3.453C367.426,15.95,289.133,27.45,258.326,30.263
				C191.443,36.368,4.354,15.856,4.354,15.856L4.69,27.328C4.69,27.328,218,61.317,244.916,61.317z"/>
			<g>
				<line fill="#FFFFFF" x1="367.426" y1="61.317" x2="244.916" y2="61.317"/>
				<g>
					
						<line fill="none" stroke="#000000" stroke-width="0.5" stroke-miterlimit="10" x1="367.426" y1="61.317" x2="361.426" y2="61.317"/>
					
						<line fill="none" stroke="#000000" stroke-width="0.5" stroke-miterlimit="10" stroke-dasharray="11.6326,5.8163" x1="355.609" y1="61.317" x2="253.824" y2="61.317"/>
					
						<line fill="none" stroke="#000000" stroke-width="0.5" stroke-miterlimit="10" x1="250.916" y1="61.317" x2="244.916" y2="61.317"/>
				</g>
			</g>
		</g>
		<g>
			<line fill="#FFFFFF" x1="275.741" y1="54.453" x2="275.741" y2="59.546"/>
			<g>
				
					<line fill="none" stroke="#000000" stroke-width="0.5" stroke-miterlimit="10" stroke-dasharray="12,6" x1="275.741" y1="54.453" x2="275.741" y2="56.722"/>
				<g>
					<polygon points="275.741,59.546 274.115,55.566 275.741,56.511 277.367,55.566 					"/>
				</g>
			</g>
		</g>
	</g>
</g>
</svg>
