<?xml version="1.0" encoding="utf-8"?>
<!-- Generator: Adobe Illustrator 16.0.0, SVG Export Plug-In . SVG Version: 6.00 Build 0)  -->
<!DOCTYPE svg PUBLIC "-//W3C//DTD SVG 1.1//EN" "http://www.w3.org/Graphics/SVG/1.1/DTD/svg11.dtd">
<svg version="1.1" id="Aircraft_Parts" xmlns="http://www.w3.org/2000/svg" xmlns:xlink="http://www.w3.org/1999/xlink" x="0px"
	 y="0px" width="572.6px" height="130.39px" viewBox="0 0 572.6 130.39" enable-background="new 0 0 572.6 130.39"
	 xml:space="preserve">
<g id="_x38_">
	<g>
		<g>
			<g>
				
					<line fill="none" stroke="#000000" stroke-width="0.5" stroke-miterlimit="10" x1="286.299" y1="127.138" x2="286.299" y2="6.081"/>
				<g>
					<polygon points="286.299,3.256 287.926,7.236 286.299,6.292 284.673,7.236 					"/>
				</g>
			</g>
		</g>
		<path fill="none" stroke="#000000" stroke-width="0.5" stroke-miterlimit="10" d="M286.299,3.256c0,0-22.813,1.622-272.977,14.474
			c-6.459,0.332-8.828,3.628-9.442,6.24c-3.466,14.762,0,71.826,0,71.826l282.419,31.342"/>
		<path fill="none" stroke="#000000" stroke-width="0.5" stroke-miterlimit="10" d="M286.299,3.256c0,0,22.812,1.622,272.976,14.474
			c6.459,0.332,8.828,3.628,9.442,6.24c3.466,14.762,0,71.826,0,71.826l-282.418,31.342"/>
	</g>
</g>
</svg>
