<?xml version="1.0" encoding="utf-8"?>
<!-- Generator: Adobe Illustrator 16.0.0, SVG Export Plug-In . SVG Version: 6.00 Build 0)  -->
<!DOCTYPE svg PUBLIC "-//W3C//DTD SVG 1.1//EN" "http://www.w3.org/Graphics/SVG/1.1/DTD/svg11.dtd">
<svg version="1.1" id="Aircraft_Parts" xmlns="http://www.w3.org/2000/svg" xmlns:xlink="http://www.w3.org/1999/xlink" x="0px"
	 y="0px" width="640.63px" height="158.74px" viewBox="0 0 640.63 158.74" enable-background="new 0 0 640.63 158.74"
	 xml:space="preserve">
<g id="_x32_">
	<path fill="none" stroke="#000000" stroke-width="0.5" stroke-miterlimit="10" d="M481.309,156.222
		c36.017,0,67.223-20.521,70.373-14.571c1.637,3.093-11.426,9.423-7.459,11.823c6.912,4.184,29.66-5.293,38.59-7.104
		c9.102-1.846,23.254-2.872,32.454-4.137c9.538-1.311,23.728-4.949,23.728-16.59c0-11.814-12.37-15.099-25.623-17.109
		c-37.987-5.764-153.883-10.187-153.883-10.187s-45.113-17.066-65.304-19.249c-20.353-2.201-61.299,9.791-61.299,9.791
		s-36.181,9.26-48.531,10.764c-29.523,3.592-19.281,1.637-118.818,1.605c-17.795-0.006-19.296-2.497-26.558-8.731
		c-19.242-16.521-61.674-81.096-61.674-81.096l0.182-7.458L1.814,2.518l-0.18,8.004l19.479,104.197
		c0,0,265.955,41.503,292.87,41.503C481.309,156.222,474.467,156.222,481.309,156.222z"/>
	<path d="M333.861,102.008c5.958,5.12,43.373,15.151,52.662,14.488c30.588-2.183,51.596-8.397,72.965-18.148
		c0,0-45.113-17.066-65.304-19.249c-20.353-2.201-61.299,9.791-61.299,9.791S329.418,98.188,333.861,102.008z"/>
	<g>
		<g>
			<line fill="none" stroke="#000000" stroke-width="0.5" stroke-miterlimit="10" x1="1.635" y1="10.522" x2="7.634" y2="10.594"/>
			
				<line fill="none" stroke="#000000" stroke-width="0.5" stroke-miterlimit="10" stroke-dasharray="12.7351,6.3675" x1="14.001" y1="10.67" x2="68.122" y2="11.321"/>
			
				<line fill="none" stroke="#000000" stroke-width="0.5" stroke-miterlimit="10" x1="71.305" y1="11.359" x2="77.305" y2="11.431"/>
		</g>
	</g>
</g>
</svg>
