<?xml version="1.0" encoding="utf-8"?>
<!-- Generator: Adobe Illustrator 16.0.0, SVG Export Plug-In . SVG Version: 6.00 Build 0)  -->
<!DOCTYPE svg PUBLIC "-//W3C//DTD SVG 1.1//EN" "http://www.w3.org/Graphics/SVG/1.1/DTD/svg11.dtd">
<svg version="1.1" id="Aircraft_Parts" xmlns="http://www.w3.org/2000/svg" xmlns:xlink="http://www.w3.org/1999/xlink" x="0px"
	 y="0px" width="311.81px" height="79.37px" viewBox="0 0 311.81 79.37" enable-background="new 0 0 311.81 79.37"
	 xml:space="preserve">
<g id="_x31_0">
	<g>
		<g>
			<g>
				
					<line fill="none" stroke="#000000" stroke-width="0.5" stroke-miterlimit="10" x1="155.021" y1="75.604" x2="155.021" y2="4.94"/>
				<g>
					<polygon points="155.021,2.116 156.647,6.096 155.021,5.151 153.396,6.096 					"/>
				</g>
			</g>
		</g>
		<path fill="none" stroke="#000000" stroke-width="0.5" stroke-miterlimit="10" d="M155.021,2.116c0,0,17.628,1.418,145.899,12.352
			c3.587,0.306,5.53,4,5.893,5.545c2.051,8.736-0.632,55.992-0.632,55.992l-151.16-0.581"/>
		<path fill="none" stroke="#000000" stroke-width="0.5" stroke-miterlimit="10" d="M155.021,2.116c0,0-17.627,1.418-145.898,12.351
			c-3.588,0.306-5.53,4.001-5.893,5.546C1.18,28.749,3.862,76.004,3.862,76.004l151.159-0.58"/>
	</g>
</g>
</svg>
